<?xml version="1.0" encoding="utf-8"?>
<!-- Generator: Adobe Illustrator 16.0.0, SVG Export Plug-In . SVG Version: 6.00 Build 0)  -->
<!DOCTYPE svg PUBLIC "-//W3C//DTD SVG 1.1 Tiny//EN" "http://www.w3.org/Graphics/SVG/1.1/DTD/svg11-tiny.dtd" [
	<!ENTITY ns_extend "http://ns.adobe.com/Extensibility/1.0/">
	<!ENTITY ns_ai "http://ns.adobe.com/AdobeIllustrator/10.0/">
	<!ENTITY ns_graphs "http://ns.adobe.com/Graphs/1.0/">
	<!ENTITY ns_vars "http://ns.adobe.com/Variables/1.0/">
	<!ENTITY ns_imrep "http://ns.adobe.com/ImageReplacement/1.0/">
	<!ENTITY ns_sfw "http://ns.adobe.com/SaveForWeb/1.0/">
	<!ENTITY ns_custom "http://ns.adobe.com/GenericCustomNamespace/1.0/">
	<!ENTITY ns_adobe_xpath "http://ns.adobe.com/XPath/1.0/">
]>
<svg version="1.1" baseProfile="tiny" id="Layer_1" xmlns:x="&ns_extend;" xmlns:i="&ns_ai;" xmlns:graph="&ns_graphs;"
	 xmlns="http://www.w3.org/2000/svg" xmlns:xlink="http://www.w3.org/1999/xlink" x="0px" y="0px" width="141.322px" height="65px"
	 viewBox="0 0 141.322 65" xml:space="preserve">
<metadata>
	<sfw  xmlns="&ns_sfw;">
		<slices></slices>
		<sliceSourceBounds  y="-432.379" x="229.522" height="65" width="141.322" bottomLeftOrigin="true"></sliceSourceBounds>
	</sfw>
</metadata>
<g id="Gpo_Aries_LOGO_11_">
	<polygon id="XMLID_698_" fill="#1c238b" points="15.454,52.48 15.454,46.191 9.8,46.223 9.8,52.48 	"/>
	<path id="XMLID_697_" fill="#1c238b" d="M1.939,55.164c-0.578,0.283-0.947,0.664-1.113,1.135c-0.167,0.475-0.279,0.921-0.334,1.348
		c-0.055,0.424-0.08,0.922-0.08,1.484v3.73h1.78v-3.332h5.021v-1.391H2.192c0-0.168,0.017-0.332,0.052-0.498
		c0.037-0.163,0.09-0.347,0.159-0.537c0.066-0.195,0.188-0.359,0.353-0.505c0.168-0.139,0.388-0.254,0.657-0.338
		c0.295-0.077,0.616-0.114,0.958-0.114h2.841v-1.412h-2.68C3.375,54.734,2.509,54.879,1.939,55.164z"/>
	<path id="XMLID_692_" fill="#1c238b" d="M13.802,58.088c-0.107-0.164-0.281-0.351-0.506-0.566c-0.232-0.216-0.55-0.393-0.955-0.533
		c-0.409-0.137-0.832-0.206-1.276-0.206c-0.467,0-0.901,0.072-1.313,0.22c-0.406,0.146-0.717,0.328-0.938,0.543
		c-0.22,0.214-0.388,0.398-0.492,0.559c-0.103,0.162-0.216,0.385-0.339,0.683c-0.12,0.301-0.176,0.663-0.176,1.094
		c0,0.227,0.018,0.435,0.056,0.637c0.038,0.2,0.12,0.453,0.244,0.767c0.125,0.316,0.331,0.603,0.607,0.865
		C9,62.414,9.358,62.619,9.783,62.766c0.427,0.146,0.854,0.222,1.282,0.222c0.225,0,0.444-0.019,0.651-0.056
		c0.209-0.039,0.47-0.111,0.779-0.221c0.313-0.109,0.613-0.297,0.909-0.563c0.304-0.293,0.527-0.636,0.681-1.033
		c0.151-0.395,0.228-0.806,0.228-1.235c0-0.452-0.059-0.823-0.176-1.114C14.021,58.473,13.907,58.25,13.802,58.088z M12.49,60.725
		c-0.092,0.273-0.266,0.506-0.542,0.689c-0.269,0.191-0.575,0.283-0.905,0.283c-0.092,0-0.191-0.006-0.29-0.023
		c-0.096-0.012-0.173-0.034-0.236-0.066c-0.35-0.137-0.605-0.359-0.775-0.67c-0.168-0.305-0.248-0.654-0.248-1.037
		c0-0.289,0.034-0.539,0.108-0.757c0.076-0.219,0.18-0.401,0.32-0.552c0.144-0.154,0.314-0.281,0.524-0.375
		c0.217-0.087,0.427-0.126,0.63-0.126c0.178,0,0.376,0.036,0.591,0.113c0.336,0.136,0.58,0.356,0.729,0.651
		c0.152,0.299,0.226,0.646,0.226,1.045C12.624,60.181,12.58,60.457,12.49,60.725z"/>
	<path id="XMLID_690_" fill="#1c238b" d="M19.154,57.111c-0.247-0.138-0.619-0.205-1.116-0.205h-2.722v5.955h1.604v-4.814h0.353
		c0.177,0,0.304,0,0.383,0.011c0.077,0.009,0.164,0.019,0.266,0.033c0.109,0.036,0.181,0.11,0.22,0.212
		c0.038,0.102,0.059,0.305,0.059,0.613v0.478h1.54V59.03v-0.396c0-0.414-0.04-0.738-0.109-0.973
		C19.564,57.43,19.403,57.245,19.154,57.111z"/>
	<path id="XMLID_689_" fill="#1c238b" d="M22.928,54.734h-1.619v2.172h-1.13v1.185h1.13v2.92c0,0.571,0.159,1.022,0.478,1.354
		c0.32,0.33,0.783,0.496,1.396,0.496h1.479v-1.188h-0.165c-0.346,0-0.646-0.017-0.896-0.06c-0.207-0.04-0.375-0.147-0.494-0.323
		c-0.124-0.174-0.18-0.439-0.18-0.792v-2.408h1.734v-1.185h-1.734V54.734z"/>
	<path id="XMLID_686_" fill="#1c238b" d="M30.131,57.02c-0.333-0.078-0.694-0.113-1.091-0.113h-3.316v1.232h2.711
		c0.333,0,0.602,0.023,0.808,0.076c0.206,0.047,0.37,0.15,0.491,0.313c0.121,0.164,0.177,0.4,0.177,0.717H27.77
		c-0.376,0-0.699,0.027-0.958,0.075c-0.263,0.048-0.504,0.136-0.731,0.257c-0.22,0.125-0.397,0.298-0.523,0.521
		c-0.121,0.223-0.202,0.503-0.245,0.84v0.16c0,0.56,0.172,0.989,0.511,1.29c0.33,0.317,0.794,0.474,1.401,0.474h4.345v-3.73
		c0-0.693-0.157-1.197-0.475-1.521C30.779,57.294,30.458,57.097,30.131,57.02z M29.911,61.674H27.89
		c-0.19,0-0.334-0.012-0.449-0.035c-0.113-0.029-0.211-0.088-0.291-0.183c-0.083-0.095-0.125-0.226-0.125-0.403
		c0-0.254,0.096-0.425,0.288-0.501c0.184-0.079,0.417-0.12,0.688-0.12h1.908V61.674z"/>
	<rect id="XMLID_685_" x="32.986" y="54.734" fill="#1c238b" width="1.678" height="8.127"/>
	<path id="XMLID_684_" fill="#1c238b" d="M37.475,57.074c-0.402,0.113-0.795,0.383-1.19,0.807c-0.4,0.428-0.595,1.096-0.595,1.999
		c0,0.901,0.252,1.623,0.762,2.17c0.508,0.542,1.288,0.812,2.336,0.812h2.359v-1.232h-2.153c-0.368,0-0.647-0.021-0.848-0.066
		c-0.21-0.063-0.373-0.168-0.487-0.332c-0.107-0.163-0.168-0.398-0.168-0.709h3.656v-1.253h-3.656c0-0.309,0.071-0.552,0.213-0.724
		c0.117-0.166,0.276-0.276,0.477-0.328c0.202-0.055,0.475-0.078,0.823-0.078h2.143v-1.232h-2.359
		C38.31,56.906,37.875,56.965,37.475,57.074z"/>
	<path id="XMLID_683_" fill="#1c238b" d="M44.363,56.949c-0.249,0.029-0.515,0.085-0.801,0.162
		c-0.281,0.071-0.559,0.238-0.833,0.492c-0.186,0.197-0.35,0.43-0.5,0.693c-0.148,0.264-0.253,0.525-0.313,0.783
		c-0.061,0.262-0.094,0.531-0.094,0.82c0,0.409,0.08,0.814,0.231,1.219c0.157,0.41,0.387,0.752,0.689,1.023
		c0.304,0.275,0.651,0.467,1.046,0.568c0.388,0.101,0.812,0.15,1.275,0.15h2.174v-1.273h-1.702h-0.209
		c-0.478,0-0.898-0.104-1.257-0.305c-0.355-0.197-0.537-0.66-0.537-1.383c0-0.739,0.174-1.207,0.519-1.405
		c0.347-0.198,0.719-0.302,1.112-0.302h0.209h0.164h1.702v-1.287h-2.174C44.842,56.906,44.607,56.92,44.363,56.949z"/>
	<path id="XMLID_682_" fill="#1c238b" d="M49.747,57.074c-0.403,0.113-0.801,0.383-1.195,0.807
		c-0.395,0.428-0.595,1.096-0.595,1.999c0,0.901,0.258,1.623,0.763,2.17c0.509,0.542,1.287,0.812,2.339,0.812h2.361v-1.232h-2.152
		c-0.367,0-0.649-0.021-0.853-0.066c-0.212-0.063-0.369-0.168-0.486-0.332c-0.106-0.163-0.168-0.398-0.168-0.709h3.659v-1.253
		h-3.659c0-0.309,0.07-0.552,0.211-0.724c0.117-0.166,0.273-0.276,0.477-0.328c0.204-0.055,0.478-0.078,0.828-0.078h2.143v-1.232
		h-2.361C50.58,56.906,50.144,56.965,49.747,57.074z"/>
	<path id="XMLID_681_" fill="#1c238b" d="M60.044,54.734h-1.622v2.172h-1.127v1.185h1.127v2.92c0,0.571,0.163,1.022,0.481,1.354
		c0.316,0.33,0.785,0.496,1.395,0.496h1.48v-1.188h-0.163c-0.35,0-0.65-0.017-0.896-0.06c-0.209-0.04-0.378-0.147-0.496-0.323
		c-0.121-0.174-0.18-0.439-0.18-0.792v-2.408h1.735v-1.185h-1.735V54.734z"/>
	<path id="XMLID_680_" fill="#1c238b" d="M66.656,61.563h-1.318c-0.264,0-0.473-0.029-0.626-0.092
		c-0.154-0.061-0.263-0.162-0.323-0.313c-0.064-0.155-0.094-0.353-0.094-0.59v-3.662h-1.61v3.777c0,0.533,0.102,0.959,0.295,1.279
		c0.202,0.32,0.487,0.547,0.86,0.688c0.373,0.143,0.832,0.211,1.385,0.211h3.05v-5.955h-1.619V61.563z"/>
	<path id="XMLID_677_" fill="#1c238b" d="M79.044,58.557c-0.142-0.355-0.337-0.654-0.589-0.898
		c-0.253-0.243-0.563-0.434-0.943-0.561c-0.376-0.127-0.779-0.191-1.217-0.191h-3.11V65h1.607v-2.139H76.2
		c0.354,0,0.668-0.025,0.956-0.082c0.289-0.047,0.556-0.139,0.804-0.27c0.245-0.127,0.477-0.309,0.676-0.553
		c0.444-0.575,0.67-1.25,0.67-2.01v-0.216c0-0.218-0.029-0.423-0.072-0.608C79.192,58.932,79.13,58.744,79.044,58.557z
		 M77.587,59.845c0,0.53-0.088,0.914-0.26,1.166c-0.173,0.249-0.41,0.403-0.699,0.474c-0.294,0.066-0.699,0.104-1.229,0.104h-0.607
		v-3.406h0.257h0.314h0.456c0.58,0,1.021,0.105,1.319,0.313c0.302,0.208,0.448,0.616,0.448,1.236V59.845z"/>
	<path id="XMLID_674_" fill="#1c238b" d="M84.813,57.02c-0.333-0.078-0.694-0.113-1.091-0.113h-3.316v1.232h2.714
		c0.331,0,0.603,0.023,0.806,0.076c0.207,0.047,0.373,0.15,0.492,0.313c0.119,0.164,0.18,0.4,0.18,0.717h-2.145
		c-0.377,0-0.697,0.027-0.959,0.075c-0.26,0.048-0.502,0.136-0.729,0.257c-0.223,0.125-0.398,0.298-0.526,0.521
		c-0.121,0.223-0.202,0.503-0.242,0.84v0.16c0,0.56,0.171,0.989,0.513,1.29c0.329,0.317,0.794,0.474,1.397,0.474h4.347v-3.73
		c0-0.693-0.162-1.197-0.474-1.521C85.464,57.294,85.144,57.097,84.813,57.02z M84.597,61.674h-2.025
		c-0.189,0-0.338-0.012-0.445-0.035c-0.115-0.029-0.211-0.088-0.297-0.183c-0.082-0.095-0.121-0.226-0.121-0.403
		c0-0.254,0.094-0.425,0.285-0.501c0.188-0.079,0.423-0.12,0.689-0.12h1.914V61.674z"/>
	<path id="XMLID_673_" fill="#1c238b" d="M89.821,54.734h-1.616v2.172h-1.131v1.185h1.131v2.92c0,0.571,0.161,1.022,0.478,1.354
		c0.32,0.33,0.787,0.496,1.396,0.496h1.479v-1.188h-0.164c-0.348,0-0.646-0.017-0.893-0.06c-0.214-0.04-0.377-0.147-0.497-0.323
		c-0.121-0.174-0.183-0.439-0.183-0.792v-2.408h1.736v-1.185h-1.736V54.734z"/>
	<path id="XMLID_672_" fill="#1c238b" d="M96.354,57.111c-0.248-0.138-0.619-0.205-1.115-0.205h-2.727v5.955h1.604v-4.814h0.355
		c0.177,0,0.301,0,0.383,0.011c0.076,0.009,0.163,0.019,0.264,0.033c0.114,0.036,0.188,0.11,0.227,0.212
		c0.037,0.102,0.057,0.305,0.057,0.613v0.478h1.536V59.03v-0.396c0-0.414-0.037-0.738-0.106-0.973
		C96.763,57.43,96.604,57.245,96.354,57.111z"/>
	<rect id="XMLID_671_" x="97.997" y="56.906" fill="#1c238b" width="1.674" height="5.955"/>
	<rect id="XMLID_670_" x="97.997" y="54.734" fill="#1c238b" width="1.674" height="1.482"/>
	<path id="XMLID_669_" fill="#1c238b" d="M109.179,57.385c-0.215-0.16-0.477-0.285-0.784-0.365c-0.337-0.078-0.7-0.113-1.095-0.113
		h-6.209v5.955h1.607v-4.657h1.91v4.657h1.668v-4.657h0.231h0.291h0.399c0.213,0,0.404,0.029,0.564,0.083
		c0.166,0.049,0.287,0.156,0.357,0.316c0.074,0.158,0.11,0.387,0.11,0.687v3.571h1.62v-3.774c0-0.422-0.061-0.774-0.178-1.044
		C109.558,57.766,109.39,57.551,109.179,57.385z"/>
	<path id="XMLID_666_" fill="#1c238b" d="M116.885,58.088c-0.114-0.164-0.286-0.351-0.513-0.566s-0.545-0.393-0.953-0.533
		c-0.412-0.137-0.832-0.206-1.275-0.206c-0.463,0-0.902,0.072-1.307,0.22c-0.41,0.146-0.727,0.328-0.946,0.543
		c-0.221,0.214-0.38,0.398-0.487,0.559c-0.104,0.162-0.222,0.385-0.338,0.683c-0.125,0.301-0.182,0.663-0.182,1.094
		c0,0.227,0.024,0.435,0.057,0.637c0.037,0.2,0.125,0.453,0.246,0.767c0.125,0.316,0.328,0.603,0.609,0.865
		c0.285,0.266,0.639,0.471,1.066,0.617s0.852,0.222,1.281,0.222c0.229,0,0.443-0.019,0.652-0.056
		c0.205-0.039,0.471-0.111,0.78-0.221c0.312-0.109,0.611-0.297,0.911-0.563c0.298-0.293,0.525-0.636,0.676-1.033
		c0.152-0.395,0.23-0.806,0.23-1.235c0-0.452-0.061-0.823-0.178-1.114C117.103,58.473,116.989,58.25,116.885,58.088z
		 M115.568,60.725c-0.089,0.273-0.268,0.506-0.538,0.689c-0.273,0.191-0.572,0.283-0.911,0.283c-0.091,0-0.188-0.006-0.285-0.023
		c-0.097-0.012-0.174-0.034-0.237-0.066c-0.348-0.137-0.605-0.359-0.772-0.67c-0.169-0.305-0.25-0.654-0.25-1.037
		c0-0.289,0.038-0.539,0.108-0.757c0.075-0.219,0.18-0.401,0.32-0.552c0.137-0.154,0.313-0.281,0.522-0.375
		c0.22-0.087,0.432-0.126,0.63-0.126c0.177,0,0.376,0.036,0.596,0.113c0.327,0.136,0.576,0.356,0.723,0.651
		c0.152,0.299,0.232,0.646,0.232,1.045C115.706,60.181,115.661,60.457,115.568,60.725z"/>
	<path id="XMLID_665_" fill="#1c238b" d="M122.841,57.098c-0.371-0.127-0.842-0.191-1.408-0.191h-3.037v5.955h1.605v-4.637h1.299
		c0.314,0,0.543,0.033,0.691,0.094c0.143,0.061,0.238,0.151,0.279,0.277c0.039,0.123,0.062,0.24,0.076,0.35
		c0.01,0.111,0.014,0.225,0.014,0.345v3.571h1.646v-3.774c0-0.556-0.103-0.996-0.302-1.32
		C123.499,57.449,123.213,57.225,122.841,57.098z"/>
	<rect id="XMLID_664_" x="125.376" y="56.906" fill="#1c238b" width="1.682" height="5.955"/>
	<rect id="XMLID_663_" x="125.376" y="54.734" fill="#1c238b" width="1.682" height="1.482"/>
	<path id="XMLID_660_" fill="#1c238b" d="M134.054,58.088c-0.111-0.164-0.279-0.351-0.51-0.566
		c-0.227-0.216-0.548-0.393-0.951-0.533c-0.41-0.137-0.835-0.206-1.278-0.206c-0.466,0-0.899,0.072-1.31,0.22
		c-0.407,0.146-0.719,0.328-0.941,0.543c-0.22,0.214-0.385,0.398-0.49,0.559c-0.102,0.162-0.217,0.385-0.338,0.683
		c-0.119,0.301-0.18,0.663-0.18,1.094c0,0.227,0.021,0.435,0.061,0.637c0.035,0.2,0.119,0.453,0.24,0.767
		c0.13,0.316,0.328,0.603,0.612,0.865c0.286,0.266,0.639,0.471,1.065,0.617c0.426,0.146,0.854,0.222,1.28,0.222
		c0.229,0,0.443-0.019,0.651-0.056c0.213-0.039,0.471-0.111,0.781-0.221c0.314-0.109,0.611-0.297,0.91-0.563
		c0.3-0.293,0.529-0.636,0.68-1.033c0.152-0.395,0.229-0.806,0.229-1.235c0-0.452-0.061-0.823-0.174-1.114
		C134.271,58.473,134.159,58.25,134.054,58.088z M132.744,60.725c-0.094,0.273-0.267,0.506-0.542,0.689
		c-0.273,0.191-0.576,0.283-0.908,0.283c-0.097,0-0.191-0.006-0.283-0.023c-0.099-0.012-0.178-0.034-0.24-0.066
		c-0.35-0.137-0.609-0.359-0.777-0.67c-0.166-0.305-0.249-0.654-0.249-1.037c0-0.289,0.04-0.539,0.111-0.757
		c0.071-0.219,0.179-0.401,0.321-0.552c0.139-0.154,0.311-0.281,0.523-0.375c0.215-0.087,0.422-0.126,0.631-0.126
		c0.178,0,0.372,0.036,0.588,0.113c0.335,0.136,0.582,0.356,0.73,0.651c0.149,0.299,0.229,0.646,0.229,1.045
		C132.878,60.181,132.833,60.457,132.744,60.725z"/>
	<polygon id="XMLID_659_" fill="#1c238b" points="137.563,61.939 137.136,60.336 136.425,60.336 136.425,62.684 136.865,62.684 
		136.865,60.832 137.334,62.684 137.791,62.684 138.257,60.832 138.257,62.684 138.696,62.684 138.696,60.336 137.983,60.336 	"/>
	<path id="XMLID_656_" fill="#1c238b" d="M141.036,62.229c-0.119-0.184-0.204-0.309-0.275-0.38c-0.068-0.075-0.15-0.144-0.251-0.198
		c0.204-0.03,0.362-0.102,0.466-0.219c0.099-0.115,0.162-0.26,0.162-0.43c0-0.143-0.045-0.268-0.111-0.379
		c-0.066-0.102-0.157-0.182-0.273-0.227c-0.109-0.045-0.293-0.061-0.547-0.061h-0.998v2.348h0.475v-0.979h0.099
		c0.104,0,0.187,0.014,0.231,0.031c0.053,0.016,0.101,0.051,0.148,0.09c0.041,0.051,0.127,0.165,0.254,0.346l0.338,0.512h0.569
		L141.036,62.229z M140.032,61.331h-0.35v-0.597h0.369c0.197,0,0.311,0,0.348,0.004c0.074,0.017,0.135,0.045,0.179,0.094
		c0.042,0.053,0.065,0.117,0.065,0.189c0,0.074-0.018,0.137-0.051,0.184c-0.032,0.041-0.078,0.074-0.133,0.102
		C140.399,61.316,140.259,61.331,140.032,61.331z"/>
	<polygon id="XMLID_655_" fill="#1c238b" points="25.688,52.363 31.345,52.363 31.345,33.065 25.688,33.058 	"/>
	<polygon id="XMLID_654_" fill="#1c238b" points="28.368,26.255 36.766,36.493 41.141,32.774 28.488,17.888 0,45.829 4.128,49.701 	
		"/>
	<polygon id="XMLID_653_" fill="#1c238b" points="23.441,52.363 23.441,39.889 17.784,39.941 17.784,52.363 	"/>
	<path id="XMLID_652_" fill="#1c238b" d="M118.14,43.141c0.957,0.781,2.518,1.18,4.691,1.18h3.547c0.98,0,1.703,0.119,2.15,0.367
		c0.787,0.43,1.179,1.107,1.179,2.029c0,0.797-0.335,1.4-1.014,1.804c-0.462,0.282-1.395,0.425-2.813,0.425h-8.74v3.41h9.628
		c1.464,0,2.555-0.063,3.294-0.179c1.508-0.259,2.623-1.034,3.377-2.346c0.525-0.933,0.806-1.974,0.806-3.14
		c0-1.043-0.206-2.041-0.62-2.967c-0.504-1.145-1.441-1.943-2.796-2.412c-0.776-0.266-1.96-0.404-3.529-0.404h-3.067
		c-1.123,0-1.93-0.112-2.409-0.322c-0.724-0.316-1.087-0.939-1.087-1.85c0-1.082,0.422-1.734,1.293-1.955
		c0.412-0.102,1.263-0.156,2.549-0.164h8.574v-3.403h-9.504c-1.123,0-1.982,0.018-2.549,0.078c-1.691,0.173-2.924,0.813-3.686,1.878
		c-0.785,1.109-1.18,2.342-1.18,3.688c0,0.854,0.166,1.659,0.504,2.41C117.079,42.023,117.536,42.643,118.14,43.141z"/>
	<path id="XMLID_651_" fill="#1c238b" d="M102.864,52.094c1.094,0.168,2.359,0.262,3.805,0.262h5.315v-3.41h-5.132
		c-1.979,0-3.379-0.322-4.203-0.967c-0.826-0.656-1.309-1.781-1.449-3.45h10.784v-3.409H101.2c0.078-0.921,0.164-1.582,0.278-1.965
		c0.091-0.381,0.288-0.758,0.573-1.134c0.418-0.552,0.941-0.924,1.568-1.116c0.632-0.195,1.654-0.287,3.049-0.287h5.315v-3.403
		h-6.89c-1.342,0-2.406,0.117-3.206,0.366c-0.798,0.246-1.536,0.683-2.241,1.31c-2.053,1.85-3.073,4.446-3.073,7.784
		c0,3.018,0.72,5.395,2.173,7.157C99.763,51.061,101.132,51.81,102.864,52.094z"/>
	<path id="XMLID_648_" fill="#1c238b" d="M53.133,33.214H50.78h-2.349l-7.93,19.141h4.781l1.856-4.432h3.643h3.634l1.859,4.432
		h4.777 M50.78,44.518h-2.727l2.727-6.715l2.734,6.715H50.78z"/>
	<path id="XMLID_645_" fill="#1c238b" d="M75.688,45.656c0.594,0.354,1.045,0.799,1.338,1.397c0.301,0.602,0.502,1.463,0.619,2.581
		C77.78,51,77.917,51.9,78.062,52.355h4.572c-0.198-0.551-0.351-1.517-0.459-2.891c-0.068-0.828-0.152-1.461-0.243-1.887
		c-0.099-0.428-0.273-0.861-0.502-1.311c-0.31-0.576-0.655-1.021-1.037-1.314c-0.386-0.303-0.948-0.573-1.702-0.824
		c0.945-0.326,1.702-0.777,2.27-1.373c0.93-0.989,1.393-2.398,1.393-4.215c0-0.91-0.203-1.737-0.596-2.498
		c-0.393-0.748-0.953-1.348-1.677-1.814c-1.062-0.683-2.937-1.014-5.627-1.014h-0.935h-8.412v19.141h4.069v-7.271h3.284
		c0.379,0,0.725,0.008,1.059,0.033C74.417,45.197,75.144,45.38,75.688,45.656z M69.176,41.672v-5.055h4.343h1.388
		c0.726,0,1.249,0.055,1.573,0.164c0.916,0.328,1.371,1.076,1.371,2.245c0,1.048-0.303,1.794-0.92,2.224
		c-0.401,0.279-1.072,0.422-2.024,0.422h-1.388H69.176z"/>
	<path id="XMLID_644_" fill="#1c238b" d="M88.134,20.875c0.197-4.009,0.301-5.532,0.301-7.931c0-0.803,1.124-1.211,1.377,0
		c0.209,0.999,0.328,4.775,0.44,8.143C101.267,8.381,89.711,0,89.711,0C79.625,7.966,84.313,17.242,88.134,20.875z"/>
	<path id="XMLID_643_" fill="#1c238b" d="M86.58,52.355l1.116-21.152c0,0-2.83-3.636-4.063-5.194
		c-0.109-0.139-0.36-0.996,0.299-0.211c0.928,1.094,3.066,3.081,3.066,3.081s1.15,1.413,1.23-0.171
		c0.072-1.582,0.775-15.447,0.775-15.447s0.215-0.907,0.369,0.349c0.188,1.546,0.755,13.237,0.755,13.237s0.243,1.744,1.336,0.561
		c2.926-3.183,3.395-4.013,5.351-6.255c0.238-0.276,1.229-0.991-0.241,1.097c-0.904,1.282-2.788,3.401-4.413,6.504
		c-0.258,0.49-0.617,1.008-0.617,2.292c0,1.28,0.465,21.31,0.465,21.31H86.58z"/>
	<path id="XMLID_642_" fill="#1c238b" d="M83.181,25.879c-0.218-0.422-0.328-1.468,0.574-0.815c0.777,0.564,2.521,2.525,2.986,3.051
		c0.382-2.26-0.073-7.895-8.133-8.771c0,0-1.869,7.66,6.715,9.409C85.323,28.753,83.595,26.673,83.181,25.879z"/>
	<path id="XMLID_639_" fill="#1c238b" d="M95.022,22.542c0.965-1.104,1.254-1.503,1.702-1.979c0.489-0.517,2.008-0.4,1.027,0.989
		c-0.349,0.496-1.099,1.516-1.916,2.623c2.228,0.49,11.21-0.108,11.19-12.373C107.026,11.802,95.923,10.224,95.022,22.542z"/>
</g>
</svg>
